<?xml version="1.0" encoding="UTF-8" standalone="no"?>
<!-- Uploaded to: SVG Repo, www.svgrepo.com, Generator: SVG Repo Mixer Tools -->

<svg
   fill="#000000"
   width="800px"
   height="800px"
   viewBox="0 0 24 24"
   role="img"
   version="1.1"
   id="svg1"
   sodipodi:docname="eventbrite-svgrepo-com.svg"
   inkscape:version="1.3.2 (091e20ef0f, 2023-11-25, custom)"
   xmlns:inkscape="http://www.inkscape.org/namespaces/inkscape"
   xmlns:sodipodi="http://sodipodi.sourceforge.net/DTD/sodipodi-0.dtd"
   xmlns="http://www.w3.org/2000/svg"
   xmlns:svg="http://www.w3.org/2000/svg">
  <defs
     id="defs1" />
  <sodipodi:namedview
     id="namedview1"
     pagecolor="#ffffff"
     bordercolor="#000000"
     borderopacity="0.25"
     inkscape:showpageshadow="2"
     inkscape:pageopacity="0.0"
     inkscape:pagecheckerboard="0"
     inkscape:deskcolor="#d1d1d1"
     inkscape:zoom="1.06"
     inkscape:cx="399.5283"
     inkscape:cy="400"
     inkscape:window-width="1920"
     inkscape:window-height="1052"
     inkscape:window-x="0"
     inkscape:window-y="0"
     inkscape:window-maximized="1"
     inkscape:current-layer="svg1" />
  <path
     d="M10.542 5.81c2.653-.6 5.3.487 6.775 2.54L5.591 11c.405-2.479 2.298-4.591 4.951-5.19zm6.84 9.746a6.47 6.47 0 0 1-3.919 2.634c-2.67.604-5.335-.501-6.804-2.582l11.763-2.657 1.915-.433L24 11.691a11.57 11.57 0 0 0-.305-2.333C22.205 3.04 15.76-.9 9.303.558 2.846 2.017-1.18 8.322.31 14.642c1.491 6.319 7.935 10.259 14.392 8.8 3.805-.86 6.765-3.402 8.25-6.638z"
     id="path1"
     style="stroke-width:0.99999;stroke-dasharray:none;fill:#ffffff;fill-opacity:1" />
</svg>
